<svg width="32" height="33" viewBox="0 0 32 33" fill="none" xmlns="http://www.w3.org/2000/svg">
<g clip-path="url(#clip0_4783_323)">
<path d="M29.5493 7.95725C28.5314 8.40751 27.4519 8.70322 26.3467 8.83458C27.5117 8.13783 28.3836 7.04127 28.8 5.74925C27.7067 6.39992 26.508 6.85592 25.2587 7.10258C24.4195 6.20469 23.3071 5.6092 22.0946 5.4087C20.8821 5.20819 19.6373 5.41391 18.5537 5.99386C17.4701 6.5738 16.6085 7.4955 16.1028 8.61564C15.5971 9.73579 15.4757 10.9916 15.7573 12.1879C13.5401 12.0768 11.3711 11.5006 9.39105 10.4968C7.41099 9.49299 5.66417 8.08398 4.264 6.36125C3.76839 7.21252 3.50794 8.18022 3.50933 9.16525C3.50933 11.0986 4.49334 12.8066 5.98933 13.8066C5.10401 13.7787 4.23818 13.5396 3.464 13.1093V13.1786C3.46427 14.4662 3.90983 15.7141 4.72513 16.7107C5.54044 17.7073 6.67531 18.3912 7.93733 18.6466C7.11549 18.8693 6.25374 18.9021 5.41734 18.7426C5.77316 19.8509 6.46668 20.8202 7.40079 21.5147C8.3349 22.2093 9.46284 22.5943 10.6267 22.6159C9.46998 23.5244 8.14557 24.1959 6.72918 24.5921C5.31278 24.9884 3.83217 25.1016 2.372 24.9253C4.92093 26.5645 7.88813 27.4347 10.9187 27.4319C21.176 27.4319 26.7853 18.9346 26.7853 11.5653C26.7853 11.3253 26.7787 11.0826 26.768 10.8453C27.8598 10.0561 28.8021 9.07861 29.5507 7.95858L29.5493 7.95725Z" fill="#7B61FF"/>
</g>
<defs>
<clipPath id="clip0_4783_323">
<rect width="32" height="32" fill="white" transform="translate(0 0.416016)"/>
</clipPath>
</defs>
</svg>
